<svg width="30" height="34" viewBox="0 0 30 34" fill="none" xmlns="http://www.w3.org/2000/svg">
<path fill-rule="evenodd" clip-rule="evenodd" d="M12.6254 3.52539C12.5865 3.34058 12.567 3.14746 12.567 2.95044C12.5668 1.36841 13.8488 0.0864258 15.4307 0.0864258C17.0126 0.0864258 18.2946 1.36841 18.2959 2.95166C18.2959 3.14893 18.2751 3.34058 18.2375 3.52661C22.7167 4.40039 23.1095 7.56763 23.5677 11.2622C24.0214 14.9194 24.5391 19.0933 29.1475 22.071C29.5183 22.3115 29.8308 22.8447 29.8308 23.2864V26.4863C29.8308 26.9282 29.4725 27.2864 29.0309 27.2864H1.83081C1.38904 27.2864 1.03076 26.9282 1.03076 26.4863V23.2864C1.03076 22.8447 1.34326 22.3115 1.71545 22.0698C6.323 19.0928 6.84094 14.9192 7.2948 11.262C7.7533 7.56689 8.14636 4.39917 12.6254 3.52539ZM9.03101 28.8865C9.03101 28.8865 10.631 32.0864 15.431 32.0864C20.2311 32.0864 21.8311 28.8865 21.8311 28.8865H9.03101Z" fill="#81868D"/>
</svg>
