<svg width="500" height="76" viewBox="0 0 500 76" fill="none" xmlns="http://www.w3.org/2000/svg">
<path d="M462.323 15.1272V26.4272H463.803V12.9072C464.603 11.5272 465.263 10.0672 465.783 8.50721L464.443 7.86721C463.443 11.0272 461.823 13.8072 459.623 16.2472L460.083 17.7472C460.883 16.9072 461.643 16.0472 462.323 15.1272ZM466.683 9.96721V11.3672H474.643C472.523 13.5272 470.863 15.3472 469.643 16.8072C468.283 18.3272 467.383 19.6472 466.903 20.7272C466.543 21.5272 466.343 22.2672 466.343 22.9472C466.343 23.7872 466.583 24.4872 467.063 25.0472C467.523 25.4872 468.323 25.7272 469.483 25.7272H475.523C476.463 25.7272 477.143 25.4072 477.543 24.7872C477.943 24.1472 478.143 22.8072 478.143 20.7472L476.763 20.3272C476.763 22.0472 476.643 23.1472 476.403 23.6472C476.143 24.1072 475.703 24.3472 475.083 24.3672H469.743C468.943 24.3672 468.403 24.2072 468.143 23.9272C467.903 23.6472 467.783 23.3272 467.783 22.9472C467.783 22.4272 467.983 21.7672 468.343 21.0072C468.803 20.0072 469.643 18.8272 470.843 17.4472C471.923 16.1872 473.903 14.1072 476.783 11.2272V9.96721H466.683ZM482.003 9.16721V10.5672H495.823V9.16721H482.003ZM480.463 15.0472V16.4472H485.643V16.7472C485.603 18.9272 485.163 20.7072 484.363 22.0672C483.503 23.3872 482.003 24.4272 479.843 25.2272L480.623 26.4472C482.843 25.6272 484.443 24.4872 485.443 23.0272C486.443 21.4472 486.983 19.3472 487.043 16.7472V16.4472H490.643V24.2072C490.643 25.4472 491.263 26.0672 492.523 26.0672H495.423C496.143 26.0672 496.683 25.8472 497.023 25.4472C497.423 24.9872 497.683 23.6672 497.823 21.4872L496.503 21.0672C496.423 22.8672 496.283 23.9472 496.043 24.3072C495.883 24.6072 495.583 24.7672 495.143 24.7672H492.923C492.323 24.7672 492.043 24.4672 492.043 23.9072V16.4472H497.563V15.0472H480.463Z" fill="#C2C3C9"/>
<path d="M389.911 8.25121C389.335 8.85121 388.615 9.40321 387.751 9.93121C386.887 10.4112 386.071 10.7472 385.303 10.9392V13.7232C386.887 13.2672 388.183 12.5712 389.215 11.6352V25.3872H392.023V8.25121H389.911ZM397.499 21.7632C396.899 21.7632 396.419 21.9312 396.059 22.2912C395.675 22.6272 395.483 23.0832 395.483 23.6592C395.483 24.1872 395.651 24.6432 396.011 25.0032C396.371 25.3632 396.803 25.5552 397.331 25.5552C397.595 25.5552 397.787 25.5072 397.931 25.4592C397.931 26.0352 397.739 26.5872 397.307 27.1632C396.851 27.6912 396.299 28.0752 395.651 28.3152V29.8992C396.899 29.5392 397.907 28.8912 398.651 27.9552C399.371 26.9952 399.755 25.8912 399.755 24.6192C399.755 23.7792 399.539 23.0832 399.131 22.5552C398.699 22.0272 398.147 21.7632 397.499 21.7632ZM407.996 7.91521C406.148 7.91521 404.684 8.39521 403.604 9.37921C402.62 10.2432 402.14 11.3232 402.14 12.6192C402.14 13.4832 402.332 14.2272 402.716 14.8272C403.124 15.4512 403.748 15.9552 404.612 16.2912V16.3392C403.796 16.5552 403.124 17.0352 402.548 17.7792C401.876 18.5952 401.564 19.5312 401.564 20.5872C401.564 22.1232 402.116 23.3472 403.244 24.3072C404.348 25.2432 405.932 25.7232 407.996 25.7232C410.036 25.7232 411.62 25.2432 412.748 24.3072C413.852 23.3472 414.428 22.1232 414.428 20.5872C414.428 19.5312 414.092 18.5952 413.444 17.7792C412.868 17.0352 412.172 16.5552 411.38 16.3392V16.2912C412.22 15.9552 412.844 15.4512 413.276 14.8272C413.66 14.2272 413.852 13.4832 413.852 12.6192C413.852 11.3232 413.348 10.2432 412.388 9.37921C411.284 8.39521 409.82 7.91521 407.996 7.91521ZM407.996 10.1472C409.004 10.1472 409.796 10.4112 410.42 10.9632C410.948 11.4432 411.212 12.0192 411.212 12.7152C411.212 13.5072 410.996 14.1312 410.564 14.5872C410.036 15.1392 409.172 15.4272 407.996 15.4272C406.796 15.4272 405.956 15.1392 405.428 14.5872C404.996 14.1312 404.78 13.5072 404.78 12.7152C404.78 12.0192 405.044 11.4432 405.572 10.9632C406.172 10.4112 406.988 10.1472 407.996 10.1472ZM407.996 17.5152C409.196 17.5152 410.108 17.8032 410.756 18.4032C411.332 18.9312 411.644 19.6752 411.644 20.5872C411.644 21.4512 411.332 22.1232 410.732 22.6512C410.06 23.1792 409.148 23.4672 407.996 23.4672C406.82 23.4672 405.932 23.2032 405.308 22.6752C404.66 22.1472 404.348 21.4512 404.348 20.5872C404.348 19.6752 404.636 18.9312 405.26 18.3792C405.884 17.8032 406.796 17.5152 407.996 17.5152ZM422.195 7.91521C420.467 7.91521 419.027 8.46721 417.875 9.59521C416.723 10.6992 416.147 12.1152 416.147 13.8432C416.147 15.5232 416.627 16.8912 417.635 17.9472C418.643 19.0512 420.011 19.6032 421.691 19.6032C422.555 19.6032 423.323 19.4352 423.995 19.1232C424.691 18.7872 425.291 18.2592 425.795 17.5632H425.915V17.7792C425.915 19.3632 425.579 20.6832 424.931 21.7392C424.235 22.8432 423.323 23.4192 422.195 23.4192C420.539 23.4192 419.555 22.6272 419.219 21.0432H416.483C416.891 24.1632 418.787 25.7232 422.171 25.7232C424.139 25.7232 425.723 24.8592 426.899 23.1312C428.051 21.4032 428.651 19.1232 428.651 16.3392C428.651 13.6992 428.099 11.6592 426.995 10.1712C425.891 8.65921 424.283 7.91521 422.195 7.91521ZM422.291 10.2432C423.251 10.2432 424.067 10.5552 424.691 11.1792C425.315 11.8032 425.627 12.6432 425.627 13.7472C425.627 14.8512 425.315 15.7152 424.739 16.3632C424.139 16.9872 423.323 17.3232 422.291 17.3232C421.235 17.3232 420.419 16.9872 419.843 16.3632C419.219 15.7392 418.931 14.8992 418.931 13.8432C418.931 12.7872 419.219 11.9232 419.843 11.2512C420.467 10.5792 421.283 10.2432 422.291 10.2432ZM436.777 7.91521C434.761 7.91521 433.201 8.73121 432.097 10.4112C431.041 11.9952 430.513 14.1312 430.513 16.8192C430.513 19.5072 431.041 21.6432 432.097 23.2272C433.201 24.8832 434.761 25.7232 436.777 25.7232C438.769 25.7232 440.329 24.8832 441.457 23.2272C442.513 21.6432 443.041 19.5072 443.041 16.8192C443.041 14.1312 442.513 11.9952 441.457 10.4112C440.329 8.73121 438.769 7.91521 436.777 7.91521ZM436.777 10.2912C438.121 10.2912 439.081 11.0352 439.657 12.5712C440.041 13.6032 440.233 15.0192 440.233 16.8192C440.233 18.5952 440.041 20.0112 439.657 21.0672C439.081 22.5792 438.121 23.3472 436.777 23.3472C435.409 23.3472 434.449 22.5792 433.897 21.0672C433.513 20.0112 433.321 18.5952 433.321 16.8192C433.321 15.0192 433.513 13.6032 433.897 12.5712C434.449 11.0352 435.409 10.2912 436.777 10.2912Z" fill="#C7A27B"/>
<rect x="419" y="48" width="80.8234" height="27.7428" rx="4" fill="#C7A27B"/>
<path d="M433.687 69.2307C434.551 69.2307 434.999 68.7827 434.999 67.9027V65.4387C436.359 65.3587 437.799 65.2627 439.319 65.1667C439.607 65.4867 439.895 65.8227 440.151 66.1747L441.063 65.5187C440.439 64.7347 439.543 63.8067 438.359 62.7347L437.479 63.2947C437.863 63.6467 438.247 64.0147 438.599 64.3827C436.231 64.5427 433.847 64.6707 431.479 64.7347C433.927 64.0467 436.215 63.0547 438.327 61.7587L437.367 61.1347C436.775 61.4867 436.183 61.8227 435.591 62.1427L431.495 62.3827C432.455 61.8707 433.399 61.2787 434.295 60.5747H439.863V55.1987H428.823V60.5747H432.727C431.879 61.1827 431.063 61.6787 430.279 62.0947C430.055 62.1587 429.703 62.2067 429.207 62.2067L429.431 63.1987C430.919 63.1027 432.439 63.0067 434.007 62.9427C432.327 63.7267 430.695 64.3027 429.127 64.6547C428.791 64.6547 428.455 64.6387 428.103 64.6227L428.343 65.6947C430.007 65.6627 431.831 65.5987 433.815 65.5027V67.6307C433.815 68.0147 433.639 68.2227 433.287 68.2227C432.871 68.2227 432.439 68.1907 431.975 68.1427L432.215 69.2307H433.687ZM436.679 66.1107L436.119 66.9747C437.655 67.4707 439.159 68.1587 440.631 69.0227L441.239 68.0467C439.863 67.2947 438.343 66.6547 436.679 66.1107ZM431.687 66.1267C430.535 66.8627 429.063 67.4707 427.271 67.9507L427.783 68.9907C429.623 68.4307 431.159 67.7427 432.375 66.9107L431.687 66.1267ZM438.759 59.6467H434.919V58.3507H438.759V59.6467ZM434.919 57.4227V56.1267H438.759V57.4227H434.919ZM433.767 59.6467H429.927V58.3507H433.767V59.6467ZM429.927 57.4227V56.1267H433.767V57.4227H429.927ZM448.071 59.4067V60.5587H452.407V69.3107H453.591V60.5587H457.703V59.4067H453.591V54.5907H452.407V59.4067H448.071ZM444.935 54.7667L444.135 55.5507C445.287 56.4147 446.215 57.2467 446.887 58.0307L447.671 57.2307C446.935 56.3987 446.023 55.5827 444.935 54.7667ZM443.063 59.5027V60.6067H445.415V66.9907C445.415 67.2467 445.287 67.4707 445.047 67.6627L445.495 68.7027C446.631 67.9507 447.703 67.1027 448.695 66.1427L448.407 64.9587C447.735 65.5987 447.095 66.1427 446.519 66.6227V59.5027H443.063ZM462.151 59.1827V60.1107H465.783V62.4147H460.071V63.4867H465.783V67.7587H463.943C463.527 66.4947 463.079 65.4067 462.583 64.5107L461.543 64.8947C462.055 65.7907 462.487 66.7347 462.823 67.7587H459.511V68.8627H473.191V67.7587H469.879C470.359 66.8947 470.807 65.8867 471.207 64.7667L470.151 64.3987C469.735 65.5987 469.255 66.7187 468.711 67.7587H466.935V63.4867H472.631V62.4147H466.935V60.1107H470.567V59.2307C471.303 59.6627 472.087 60.0627 472.935 60.4147L473.591 59.4547C470.615 58.2067 468.359 56.6387 466.823 54.7347H465.895C464.135 56.6707 461.863 58.2547 459.079 59.5027L459.751 60.4627C460.583 60.0787 461.383 59.6467 462.151 59.1827ZM470.295 59.0707H462.327C463.815 58.1587 465.159 57.0707 466.359 55.8227C467.415 57.0547 468.727 58.1427 470.295 59.0707ZM476.839 61.0387C477.383 61.3267 477.911 61.6307 478.423 61.9347C477.463 62.7667 476.311 63.3427 474.951 63.6627L475.383 64.5267C476.887 64.1267 478.199 63.4387 479.287 62.4467C480.311 63.0707 481.191 63.6787 481.927 64.2867L482.647 63.5667C481.847 62.9747 480.951 62.3827 479.943 61.7747C480.471 61.1667 480.951 60.4467 481.367 59.6147V58.8307H478.375C478.519 58.5107 478.647 58.1587 478.775 57.7907L477.735 57.6467C477.271 59.0707 476.375 60.2707 475.063 61.2627L475.671 62.0787C476.087 61.7587 476.471 61.4067 476.839 61.0387ZM479.095 61.2787C478.583 60.9747 478.023 60.6707 477.431 60.3667C477.591 60.1587 477.735 59.9507 477.879 59.7267H480.231C479.911 60.2867 479.527 60.7987 479.095 61.2787ZM482.135 56.1427H479.447C479.223 55.5347 478.999 55.0067 478.775 54.5267L477.623 54.7187C477.879 55.1507 478.119 55.6307 478.343 56.1427H475.415V58.7987H476.423V57.1347H481.127V58.7827H482.135V56.1427ZM481.351 64.3187H476.407V69.1827H477.447V68.3507H480.327V69.1827H481.351V64.3187ZM477.447 67.3747V65.2787H480.327V67.3747H477.447ZM482.679 55.2787V56.3347H485.655C485.591 56.9587 485.495 57.5667 485.367 58.1427H483.079V65.6627H484.103V59.1027H488.103V65.6467H489.127V58.1427H486.439C486.567 57.5667 486.679 56.9747 486.759 56.3347H489.703V55.2787H482.679ZM487.079 65.9027L486.391 66.5747C487.511 67.5347 488.407 68.4307 489.047 69.2787L489.799 68.5427C489.063 67.6627 488.167 66.7827 487.079 65.9027ZM485.559 60.0467V62.9587C485.527 64.3507 485.271 65.4867 484.807 66.3667C484.295 67.1987 483.415 67.8707 482.151 68.3827L482.743 69.2947C484.071 68.7667 485.031 68.0307 485.623 67.0707C486.215 66.0467 486.535 64.6707 486.567 62.9587V60.0467H485.559Z" fill="white"/>
<path d="M51.9841 30.9792V40.0192H53.1681V29.2032C53.8081 28.0992 54.3361 26.9312 54.7521 25.6832L53.6801 25.1712C52.8801 27.6992 51.5841 29.9232 49.8241 31.8752L50.1921 33.0752C50.8321 32.4032 51.4401 31.7152 51.9841 30.9792ZM55.4721 26.8512V27.9712H61.8401C60.1441 29.6992 58.8161 31.1552 57.8401 32.3232C56.7521 33.5392 56.0321 34.5952 55.6481 35.4592C55.3601 36.0992 55.2001 36.6912 55.2001 37.2352C55.2001 37.9072 55.3921 38.4672 55.7761 38.9152C56.1441 39.2672 56.7841 39.4592 57.7121 39.4592H62.5441C63.2961 39.4592 63.8401 39.2032 64.1601 38.7072C64.4801 38.1952 64.6401 37.1232 64.6401 35.4752L63.5361 35.1392C63.5361 36.5152 63.4401 37.3952 63.2481 37.7952C63.0401 38.1632 62.6881 38.3552 62.1921 38.3712H57.9201C57.2801 38.3712 56.8481 38.2432 56.6401 38.0192C56.4481 37.7952 56.3521 37.5392 56.3521 37.2352C56.3521 36.8192 56.5121 36.2912 56.8001 35.6832C57.1681 34.8832 57.8401 33.9392 58.8001 32.8352C59.6641 31.8272 61.2481 30.1632 63.5521 27.8592V26.8512H55.4721ZM67.7281 26.2112V27.3312H78.7841V26.2112H67.7281ZM66.4961 30.9152V32.0352H70.6401V32.2752C70.6081 34.0192 70.2561 35.4432 69.6161 36.5312C68.9281 37.5872 67.7281 38.4192 66.0001 39.0592L66.6241 40.0352C68.4001 39.3792 69.6801 38.4672 70.4801 37.2992C71.2801 36.0352 71.7121 34.3552 71.7601 32.2752V32.0352H74.6401V38.2432C74.6401 39.2352 75.1361 39.7312 76.1441 39.7312H78.4641C79.0401 39.7312 79.4721 39.5552 79.7441 39.2352C80.0641 38.8672 80.2721 37.8112 80.3841 36.0672L79.3281 35.7312C79.2641 37.1712 79.1521 38.0352 78.9601 38.3232C78.8321 38.5632 78.5921 38.6912 78.2401 38.6912H76.4641C75.9841 38.6912 75.7601 38.4512 75.7601 38.0032V32.0352H80.1761V30.9152H66.4961Z" fill="#C2C3C9"/>
<path d="M4.912 26.7392C3.824 26.7392 2.944 27.0432 2.272 27.6672C1.568 28.2912 1.152 29.1552 1.056 30.2592H2.352C2.432 29.4912 2.688 28.8992 3.136 28.4832C3.568 28.0672 4.16 27.8752 4.928 27.8752C5.664 27.8752 6.256 28.0512 6.672 28.4352C7.056 28.7872 7.264 29.2832 7.264 29.9232C7.264 30.5632 7.056 31.0592 6.656 31.4112C6.256 31.7472 5.68 31.9232 4.912 31.9232H4.032V32.9472H4.96C5.76 32.9472 6.368 33.1232 6.816 33.5072C7.264 33.8912 7.488 34.4192 7.488 35.1072C7.488 35.7792 7.248 36.3392 6.8 36.7872C6.304 37.2512 5.648 37.4912 4.832 37.4912C4.112 37.4912 3.52 37.2832 3.04 36.8992C2.48 36.4352 2.176 35.7472 2.144 34.8512H0.816C0.912 36.1312 1.36 37.1072 2.176 37.7792C2.864 38.3232 3.744 38.6112 4.832 38.6112C6.016 38.6112 6.976 38.2752 7.712 37.6032C8.432 36.9472 8.8 36.0992 8.8 35.0592C8.8 34.3872 8.608 33.8272 8.224 33.3792C7.872 32.9312 7.36 32.6112 6.688 32.4032C7.936 31.9872 8.56 31.1232 8.56 29.8432C8.56 28.8832 8.224 28.1312 7.568 27.5712C6.896 27.0112 6 26.7392 4.912 26.7392ZM11.7057 36.4832C11.3858 36.4832 11.1458 36.5632 10.9698 36.7552C10.7618 36.9312 10.6658 37.1712 10.6658 37.4752C10.6658 37.7472 10.7618 37.9872 10.9538 38.1792C11.1458 38.3712 11.3698 38.4672 11.6418 38.4672C11.8018 38.4672 11.9138 38.4352 11.9938 38.4032C11.9938 38.7872 11.8818 39.1392 11.6418 39.4752C11.3858 39.7952 11.0338 40.0352 10.6178 40.1792V40.9632C11.3058 40.7872 11.8658 40.4352 12.2818 39.9232C12.6978 39.3792 12.9058 38.7552 12.9058 38.0512C12.9058 37.5872 12.7938 37.2192 12.5858 36.9312C12.3618 36.6272 12.0578 36.4832 11.7057 36.4832ZM18.6125 26.7392C17.2365 26.7392 16.2125 27.3312 15.5245 28.5472C14.9165 29.5712 14.6125 30.9472 14.6125 32.6752C14.6125 34.4032 14.9165 35.7792 15.5245 36.8032C16.2125 38.0032 17.2365 38.6112 18.6125 38.6112C19.9725 38.6112 20.9965 38.0032 21.7005 36.8032C22.3085 35.7792 22.6125 34.4032 22.6125 32.6752C22.6125 30.9472 22.3085 29.5712 21.7005 28.5472C20.9965 27.3312 19.9725 26.7392 18.6125 26.7392ZM18.6125 27.8592C19.6365 27.8592 20.3725 28.4032 20.8205 29.5072C21.1405 30.2752 21.3165 31.3312 21.3165 32.6752C21.3165 34.0032 21.1405 35.0592 20.8205 35.8432C20.3725 36.9312 19.6365 37.4912 18.6125 37.4912C17.5885 37.4912 16.8525 36.9312 16.4045 35.8432C16.0845 35.0592 15.9245 34.0032 15.9245 32.6752C15.9245 31.3312 16.0845 30.2752 16.4045 29.5072C16.8525 28.4032 17.5885 27.8592 18.6125 27.8592ZM28.2063 26.7392C26.8303 26.7392 25.8063 27.3312 25.1183 28.5472C24.5103 29.5712 24.2063 30.9472 24.2063 32.6752C24.2063 34.4032 24.5103 35.7792 25.1183 36.8032C25.8063 38.0032 26.8303 38.6112 28.2063 38.6112C29.5663 38.6112 30.5903 38.0032 31.2943 36.8032C31.9023 35.7792 32.2063 34.4032 32.2063 32.6752C32.2063 30.9472 31.9023 29.5712 31.2943 28.5472C30.5903 27.3312 29.5663 26.7392 28.2063 26.7392ZM28.2063 27.8592C29.2303 27.8592 29.9663 28.4032 30.4143 29.5072C30.7343 30.2752 30.9103 31.3312 30.9103 32.6752C30.9103 34.0032 30.7343 35.0592 30.4143 35.8432C29.9663 36.9312 29.2303 37.4912 28.2063 37.4912C27.1823 37.4912 26.4463 36.9312 25.9983 35.8432C25.6783 35.0592 25.5182 34.0032 25.5182 32.6752C25.5182 31.3312 25.6783 30.2752 25.9983 29.5072C26.4463 28.4032 27.1823 27.8592 28.2063 27.8592ZM37.8 26.7392C36.424 26.7392 35.4 27.3312 34.712 28.5472C34.104 29.5712 33.8 30.9472 33.8 32.6752C33.8 34.4032 34.104 35.7792 34.712 36.8032C35.4 38.0032 36.424 38.6112 37.8 38.6112C39.16 38.6112 40.184 38.0032 40.888 36.8032C41.496 35.7792 41.8 34.4032 41.8 32.6752C41.8 30.9472 41.496 29.5712 40.888 28.5472C40.184 27.3312 39.16 26.7392 37.8 26.7392ZM37.8 27.8592C38.824 27.8592 39.56 28.4032 40.008 29.5072C40.328 30.2752 40.504 31.3312 40.504 32.6752C40.504 34.0032 40.328 35.0592 40.008 35.8432C39.56 36.9312 38.824 37.4912 37.8 37.4912C36.776 37.4912 36.04 36.9312 35.592 35.8432C35.272 35.0592 35.112 34.0032 35.112 32.6752C35.112 31.3312 35.272 30.2752 35.592 29.5072C36.04 28.4032 36.776 27.8592 37.8 27.8592Z" fill="#C2C3C9"/>
<path opacity="0.7" d="M13.376 55.3907H2.64V69.2947H3.808V68.2227H12.224V69.2627H13.376V55.3907ZM3.808 67.1027V64.0947H12.224V67.1027H3.808ZM3.808 63.0387V60.2227H12.224V63.0387H3.808ZM3.808 59.1667V56.5107H12.224V59.1667H3.808ZM19.056 54.6547V57.6787H17.104V58.7827H19.056C18.56 60.7987 17.744 62.6067 16.592 64.1747L17.088 65.4227C17.888 64.1747 18.544 62.7987 19.056 61.2947V69.2627H20.192V61.2467C20.672 61.8547 21.232 62.6547 21.888 63.6627L22.544 62.6867C21.76 61.7107 20.976 60.8147 20.192 60.0147V58.7827H22.048V57.6787H20.192V54.6547H19.056ZM23.776 61.8867C23.328 63.8707 22.608 65.6627 21.616 67.2787L22.608 67.9187C23.568 66.2867 24.32 64.3667 24.832 62.1267L23.776 61.8867ZM29.568 61.8067L28.528 62.1427C29.152 63.8707 29.728 65.8387 30.256 68.0627L31.296 67.5987C30.816 65.5507 30.24 63.6147 29.568 61.8067ZM25.984 69.1027C26.912 69.1027 27.392 68.6227 27.392 67.6787V60.5587H31.312V59.4547H22.336V60.5587H26.24V67.3907C26.24 67.8547 26.016 68.0947 25.584 68.0947C25.12 68.0947 24.64 68.0627 24.128 68.0307L24.352 69.1027H25.984ZM23.184 55.5667V56.6547H30.48V55.5667H23.184ZM35.808 59.1827V60.1107H39.44V62.4147H33.728V63.4867H39.44V67.7587H37.6C37.184 66.4947 36.736 65.4067 36.24 64.5107L35.2 64.8947C35.712 65.7907 36.144 66.7347 36.48 67.7587H33.168V68.8627H46.848V67.7587H43.536C44.016 66.8947 44.464 65.8867 44.864 64.7667L43.808 64.3987C43.392 65.5987 42.912 66.7187 42.368 67.7587H40.592V63.4867H46.288V62.4147H40.592V60.1107H44.224V59.2307C44.96 59.6627 45.744 60.0627 46.592 60.4147L47.248 59.4547C44.272 58.2067 42.016 56.6387 40.48 54.7347H39.552C37.792 56.6707 35.52 58.2547 32.736 59.5027L33.408 60.4627C34.24 60.0787 35.04 59.6467 35.808 59.1827ZM43.952 59.0707H35.984C37.472 58.1587 38.816 57.0707 40.016 55.8227C41.072 57.0547 42.384 58.1427 43.952 59.0707ZM50.496 61.0387C51.04 61.3267 51.568 61.6307 52.08 61.9347C51.12 62.7667 49.968 63.3427 48.608 63.6627L49.04 64.5267C50.544 64.1267 51.856 63.4387 52.944 62.4467C53.968 63.0707 54.848 63.6787 55.584 64.2867L56.304 63.5667C55.504 62.9747 54.608 62.3827 53.6 61.7747C54.128 61.1667 54.608 60.4467 55.024 59.6147V58.8307H52.032C52.176 58.5107 52.304 58.1587 52.432 57.7907L51.392 57.6467C50.928 59.0707 50.032 60.2707 48.72 61.2627L49.328 62.0787C49.744 61.7587 50.128 61.4067 50.496 61.0387ZM52.752 61.2787C52.24 60.9747 51.68 60.6707 51.088 60.3667C51.248 60.1587 51.392 59.9507 51.536 59.7267H53.888C53.568 60.2867 53.184 60.7987 52.752 61.2787ZM55.792 56.1427H53.104C52.88 55.5347 52.656 55.0067 52.432 54.5267L51.28 54.7187C51.536 55.1507 51.776 55.6307 52 56.1427H49.072V58.7987H50.08V57.1347H54.784V58.7827H55.792V56.1427ZM55.008 64.3187H50.064V69.1827H51.104V68.3507H53.984V69.1827H55.008V64.3187ZM51.104 67.3747V65.2787H53.984V67.3747H51.104ZM56.336 55.2787V56.3347H59.312C59.248 56.9587 59.152 57.5667 59.024 58.1427H56.736V65.6627H57.76V59.1027H61.76V65.6467H62.784V58.1427H60.096C60.224 57.5667 60.336 56.9747 60.416 56.3347H63.36V55.2787H56.336ZM60.736 65.9027L60.048 66.5747C61.168 67.5347 62.064 68.4307 62.704 69.2787L63.456 68.5427C62.72 67.6627 61.824 66.7827 60.736 65.9027ZM59.216 60.0467V62.9587C59.184 64.3507 58.928 65.4867 58.464 66.3667C57.952 67.1987 57.072 67.8707 55.808 68.3827L56.4 69.2947C57.728 68.7667 58.688 68.0307 59.28 67.0707C59.872 66.0467 60.192 64.6707 60.224 62.9587V60.0467H59.216Z" fill="#C2C3C9"/>
<rect x="136.579" y="52.615" width="217.421" height="19.1278" rx="9.56389" fill="#EBEFF5"/>
<rect x="298.091" y="52.3218" width="19.7143" height="161.512" rx="9.85713" transform="rotate(90 298.091 52.3218)" fill="url(#paint0_linear)"/>
<defs>
<linearGradient id="paint0_linear" x1="307.948" y1="52.3218" x2="307.948" y2="213.834" gradientUnits="userSpaceOnUse">
<stop stop-color="#6D77E4"/>
<stop offset="1" stop-color="#A0A6EE"/>
</linearGradient>
</defs>
</svg>
