<svg width="32" height="34" viewBox="0 0 32 34" fill="none" xmlns="http://www.w3.org/2000/svg">
<path d="M15.9995 0.0864258C7.17864 0.0864258 -0.000488281 7.26555 -0.000488281 16.0864C-0.000488281 24.9073 7.17864 32.0864 15.9995 32.0864C24.8204 32.0864 31.9995 24.9073 31.9995 16.0864C31.9995 7.26555 24.8204 0.0864258 15.9995 0.0864258ZM16.0358 27.5858C9.64378 27.5858 4.49997 22.4074 4.49997 16.05C4.49997 11.4072 7.24962 7.40769 11.2145 5.55095C10.9996 6.48007 10.8573 7.4789 10.8573 8.47917C10.8573 15.5144 16.5715 21.1939 23.572 21.1939C24.5723 21.1939 25.5726 21.0865 26.5003 20.8368C24.7132 24.8363 20.6786 27.5859 16.0359 27.5859L16.0358 27.5858Z" fill="#81868D"/>
</svg>
